<svg width="283" height="176" viewBox="0 0 283 176" fill="none" xmlns="http://www.w3.org/2000/svg">
<path d="M6.04284 65.1478C-4.26141 55.1988 2.14434 37.7468 16.4382 36.8264L165.253 27.2447C169.676 26.9599 174.027 28.4675 177.326 31.4275L276.527 120.438C286.703 129.568 281.988 146.405 268.55 148.922L129.729 174.924C124.48 175.907 119.08 174.288 115.238 170.579L6.04284 65.1478Z" fill="#4D0259"/>
<path d="M98.123 53.4396C86.7058 48.8727 109.012 38.0052 121.592 33.1423L156.16 30.6052C146.223 39.1681 128.886 56.9916 139.035 59.7825C149.183 62.5733 114.509 104.5 95.903 125.114L71.1658 101.645C84.9087 87.4797 109.54 58.0064 98.123 53.4396Z" fill="#BC63CA"/>
<path d="M174.872 100.694C163.455 96.1272 184.809 58.9367 197.389 54.0739L212.929 68.0282C202.992 76.5911 193.266 94.0974 203.415 96.8883C213.563 99.6792 193.478 120.357 174.872 140.971L118.103 151.437C131.846 137.271 186.289 105.261 174.872 100.694Z" fill="#BC63CA"/>
<path d="M125.397 146.997C118.456 148.853 47.697 72.2568 12.1769 39.8024L9.00545 41.7052L4.56543 51.2196V60.0996L116.2 168.88L125.397 172.369L261.135 148.266C287.775 139.893 279.529 133.994 277.309 127.017C275.724 125.114 244.009 115.283 125.397 146.997Z" fill="#2E0634"/>
<path fill-rule="evenodd" clip-rule="evenodd" d="M165.62 32.9415L16.805 42.5232C7.45898 43.125 3.27063 54.5359 10.008 61.041L119.203 166.472C121.715 168.897 125.246 169.956 128.678 169.313L267.499 143.311C276.285 141.665 279.368 130.657 272.715 124.687L173.514 35.6764C171.357 33.741 168.512 32.7553 165.62 32.9415ZM16.4382 36.8264C2.14434 37.7468 -4.26141 55.1988 6.04283 65.1478L115.238 170.579C119.08 174.288 124.48 175.907 129.729 174.924L268.55 148.922C281.988 146.405 286.703 129.568 276.527 120.438L177.326 31.4275C174.027 28.4675 169.676 26.9599 165.253 27.2447L16.4382 36.8264Z" fill="black"/>
<line x1="73.0168" y1="55.3424" x2="133.326" y2="115.652" stroke="black" stroke-width="8" stroke-linecap="round"/>
<line x1="116.783" y1="50.2681" x2="177.092" y2="110.577" stroke="black" stroke-width="8" stroke-linecap="round"/>
<line x1="162.452" y1="45.8281" x2="222.761" y2="106.137" stroke="black" stroke-width="8" stroke-linecap="round"/>
<path d="M83.5615 80.5544C82.1264 79.0125 83.0866 76.4945 85.184 76.2996L104.765 74.4802C105.51 74.411 106.248 74.674 106.781 75.1988L112.589 80.9191C114.078 82.3855 113.255 84.9223 111.188 85.2353L92.1189 88.1247C91.29 88.2503 90.4527 87.9584 89.8816 87.3448L83.5615 80.5544Z" fill="#D9D9D9"/>
<path d="M112.077 81.3483L88.6086 84.5197L91.4629 87.374L103.832 85.7883L111.76 84.8368L112.077 81.3483Z" fill="#454545"/>
<path fill-rule="evenodd" clip-rule="evenodd" d="M104.942 76.3749L85.36 78.1943C84.8357 78.243 84.5956 78.8725 84.9544 79.258L91.2745 86.0484C91.4173 86.2018 91.6266 86.2747 91.8338 86.2433L110.903 83.3539C111.42 83.2757 111.626 82.6415 111.253 82.2749L105.445 76.5546C105.312 76.4234 105.128 76.3576 104.942 76.3749ZM85.184 76.2996C83.0866 76.4945 82.1264 79.0125 83.5615 80.5544L89.8816 87.3448C90.4527 87.9584 91.29 88.2503 92.1189 88.1247L111.188 85.2353C113.255 84.9223 114.078 82.3855 112.589 80.9191L106.781 75.1988C106.248 74.674 105.51 74.411 104.765 74.4802L85.184 76.2996Z" fill="black"/>
<path d="M148.598 98.2163C147.163 96.6744 148.123 94.1563 150.221 93.9614L169.802 92.1421C170.547 92.0729 171.284 92.3358 171.817 92.8607L177.625 98.581C179.114 100.047 178.291 102.584 176.225 102.897L157.155 105.787C156.327 105.912 155.489 105.62 154.918 105.007L148.598 98.2163Z" fill="#D9D9D9"/>
<path d="M177.114 99.0101L153.645 102.182L156.5 105.036L168.868 103.45L176.797 102.499L177.114 99.0101Z" fill="#454545"/>
<path fill-rule="evenodd" clip-rule="evenodd" d="M169.978 94.0368L150.397 95.8561C149.872 95.9049 149.632 96.5344 149.991 96.9198L156.311 103.71C156.454 103.864 156.663 103.937 156.87 103.905L175.94 101.016C176.457 100.937 176.662 100.303 176.29 99.9367L170.482 94.2164C170.349 94.0852 170.164 94.0195 169.978 94.0368ZM150.221 93.9614C148.123 94.1563 147.163 96.6744 148.598 98.2163L154.918 105.007C155.489 105.62 156.327 105.912 157.155 105.787L176.225 102.897C178.291 102.584 179.114 100.047 177.625 98.581L171.817 92.8607C171.284 92.3358 170.547 92.0729 169.802 92.1421L150.221 93.9614Z" fill="black"/>
<path d="M154.307 51.9132C152.872 50.3713 153.832 47.8533 155.929 47.6584L175.511 45.839C176.255 45.7698 176.993 46.0328 177.526 46.5576L183.334 52.2779C184.823 53.7443 184 56.281 181.934 56.5941L162.864 59.4835C162.035 59.6091 161.198 59.3172 160.627 58.7036L154.307 51.9132Z" fill="#D9D9D9"/>
<path d="M182.822 52.707L159.354 55.8785L162.208 58.7328L174.577 57.147L182.505 56.1956L182.822 52.707Z" fill="#454545"/>
<path fill-rule="evenodd" clip-rule="evenodd" d="M175.687 47.7337L156.105 49.5531C155.581 49.6018 155.341 50.2313 155.7 50.6168L162.02 57.4071C162.162 57.5605 162.372 57.6335 162.579 57.6021L181.649 54.7127C182.165 54.6344 182.371 54.0003 181.999 53.6337L176.19 47.9134C176.057 47.7821 175.873 47.7164 175.687 47.7337ZM155.929 47.6584C153.832 47.8533 152.872 50.3713 154.307 51.9132L160.627 58.7036C161.198 59.3172 162.035 59.6091 162.864 59.4835L181.934 56.5941C184 56.281 184.823 53.7443 183.334 52.2779L177.526 46.5576C176.993 46.0328 176.255 45.7698 175.511 45.839L155.929 47.6584Z" fill="black"/>
<path d="M177.753 5.86265C178.398 4.12142 180.86 4.12142 181.505 5.86265L183.079 10.1166C183.281 10.664 183.713 11.0956 184.26 11.2982L188.514 12.8723C190.256 13.5166 190.256 15.9794 188.514 16.6237L184.26 18.1978C183.713 18.4003 183.281 18.832 183.079 19.3794L181.505 23.6333C180.86 25.3745 178.398 25.3746 177.753 23.6333L176.179 19.3794C175.977 18.832 175.545 18.4003 174.998 18.1978L170.744 16.6237C169.002 15.9794 169.002 13.5166 170.744 12.8723L174.998 11.2982C175.545 11.0956 175.977 10.664 176.179 10.1166L177.753 5.86265Z" fill="#F2B705"/>
<path d="M187.902 24.8913C188.546 23.1501 191.009 23.1501 191.653 24.8913L192.2 26.3674C192.402 26.9148 192.834 27.3464 193.381 27.549L194.857 28.0952C196.598 28.7395 196.598 31.2023 194.857 31.8466L193.381 32.3928C192.834 32.5954 192.402 33.027 192.2 33.5744L191.653 35.0505C191.009 36.7917 188.546 36.7917 187.902 35.0505L187.356 33.5744C187.153 33.027 186.722 32.5954 186.174 32.3928L184.698 31.8466C182.957 31.2023 182.957 28.7395 184.698 28.0952L186.174 27.549C186.722 27.3464 187.153 26.9148 187.356 26.3674L187.902 24.8913Z" fill="#F2B705"/>
<path d="M159.722 19.6937C160.35 17.9948 162.753 17.9948 163.382 19.6937V19.6937C163.579 20.2278 164.001 20.6489 164.535 20.8465V20.8465C166.234 21.4752 166.234 23.878 164.535 24.5067V24.5067C164.001 24.7043 163.579 25.1254 163.382 25.6595V25.6595C162.753 27.3584 160.35 27.3584 159.722 25.6595V25.6595C159.524 25.1254 159.103 24.7043 158.569 24.5067V24.5067C156.87 23.878 156.87 21.4752 158.569 20.8465V20.8465C159.103 20.6489 159.524 20.2278 159.722 19.6937V19.6937Z" fill="#F2B705"/>
</svg>
