<svg width="53" height="54" viewBox="0 0 53 54" fill="none" xmlns="http://www.w3.org/2000/svg">
<path d="M26.4998 49.0833C38.6961 49.0833 48.5832 39.1963 48.5832 27C48.5832 14.8037 38.6961 4.91667 26.4998 4.91667C14.3035 4.91667 4.4165 14.8037 4.4165 27C4.4165 39.1963 14.3035 49.0833 26.4998 49.0833Z" fill="#023059" stroke="#023059" stroke-width="2" stroke-linecap="round" stroke-linejoin="round"/>
<path d="M26 17.5C25.2044 17.5 24.4413 17.8161 23.8787 18.3787C23.3161 18.9413 23 19.7044 23 20.5V27.5C23 28.2956 23.3161 29.0587 23.8787 29.6213C24.4413 30.1839 25.2044 30.5 26 30.5C26.7956 30.5 27.5587 30.1839 28.1213 29.6213C28.6839 29.0587 29 28.2956 29 27.5V20.5C29 19.7044 28.6839 18.9413 28.1213 18.3787C27.5587 17.8161 26.7956 17.5 26 17.5Z" stroke="white" stroke-width="2" stroke-linecap="round" stroke-linejoin="round"/>
<path d="M33 25.5V27.5C33 29.3565 32.2625 31.137 30.9497 32.4497C29.637 33.7625 27.8565 34.5 26 34.5C24.1435 34.5 22.363 33.7625 21.0503 32.4497C19.7375 31.137 19 29.3565 19 27.5V25.5" stroke="white" stroke-width="2" stroke-linecap="round" stroke-linejoin="round"/>
<path d="M26 34.5V37.5" stroke="white" stroke-width="2" stroke-linecap="round" stroke-linejoin="round"/>
</svg>
