<svg width="243" height="56" viewBox="0 0 243 56" fill="none" xmlns="http://www.w3.org/2000/svg">
<path d="M243 28.2965H0V28.9679H243V28.2965Z" fill="#BFCDDD"/>
<path d="M2.81609 20.4748H1.79639V37.4613H2.81609V20.4748Z" fill="#BFCDDD"/>
<path d="M1.42693 27.5456H0.407227V30.3901H1.42693V27.5456Z" fill="#BFCDDD"/>
<path d="M4.20574 23.3189H3.18604V34.3007H4.20574V23.3189Z" fill="#BFCDDD"/>
<path d="M5.59588 24.0298H4.57617V33.2342H5.59588V24.0298Z" fill="#BFCDDD"/>
<path d="M6.98504 16.9982H5.96533V50.5763H6.98504V16.9982Z" fill="#BFCDDD"/>
<path d="M8.37469 13.4036H7.35498V50.8531H8.37469V13.4036Z" fill="#BFCDDD"/>
<path d="M9.76385 19.4082H8.74414V37.4613H9.76385V19.4082Z" fill="#BFCDDD"/>
<path d="M11.1525 19.1317H10.1328V35.7233H11.1525V19.1317Z" fill="#BFCDDD"/>
<path d="M12.5427 15.3786H11.5229V52.8281H12.5427V15.3786Z" fill="#BFCDDD"/>
<path d="M13.9323 21.3831H12.9126V39.4362H13.9323V21.3831Z" fill="#BFCDDD"/>
<path d="M15.322 16.6034H14.3022V40.5032H15.322V16.6034Z" fill="#BFCDDD"/>
<path d="M16.7111 16.6429H15.6914V40.5427H16.7111V16.6429Z" fill="#BFCDDD"/>
<path d="M18.1012 20.3166H17.0815V40.5423H18.1012V20.3166Z" fill="#BFCDDD"/>
<path d="M19.4909 23.2006H18.4712V37.343H19.4909V23.2006Z" fill="#BFCDDD"/>
<path d="M20.8801 25.1755H19.8604V32.3258H20.8801V25.1755Z" fill="#BFCDDD"/>
<path d="M22.2697 25.6891H21.25V32.3255H22.2697V25.6891Z" fill="#BFCDDD"/>
<path d="M23.6598 27.4273H22.6401V30.2714H23.6598V27.4273Z" fill="#BFCDDD"/>
<path d="M25.0485 26.3607H24.0288V30.9036H25.0485V26.3607Z" fill="#BFCDDD"/>
<path d="M26.4377 25.8473H25.418V30.9827H26.4377V25.8473Z" fill="#BFCDDD"/>
<path d="M27.8278 27.1112H26.8081V29.9557H27.8278V27.1112Z" fill="#BFCDDD"/>
<path d="M34.2287 20.1191H33.209V37.1056H34.2287V20.1191Z" fill="#BFCDDD"/>
<path d="M35.4323 22.9633H34.4126V33.9451H35.4323V22.9633Z" fill="#BFCDDD"/>
<path d="M36.6349 16.6429H35.6152V50.221H36.6349V16.6429Z" fill="#BFCDDD"/>
<path d="M37.8381 13.048H36.8184V50.4976H37.8381V13.048Z" fill="#BFCDDD"/>
<path d="M39.0412 19.0526H38.0215V37.1056H39.0412V19.0526Z" fill="#BFCDDD"/>
<path d="M40.2443 18.776H39.2246V35.3677H40.2443V18.776Z" fill="#BFCDDD"/>
<path d="M41.4484 23.872H40.4287V33.5503H41.4484V23.872Z" fill="#BFCDDD"/>
<path d="M33.0256 27.3087H32.0059V30.1528H33.0256V27.3087Z" fill="#BFCDDD"/>
<path d="M42.6506 24.5829H41.6309V32.7207H42.6506V24.5829Z" fill="#BFCDDD"/>
<path d="M43.8537 23.9511H42.834V31.3384H43.8537V23.9511Z" fill="#BFCDDD"/>
<path d="M45.0573 20.3561H44.0376V40.1079H45.0573V20.3561Z" fill="#BFCDDD"/>
<path d="M46.2604 14.3911H45.2407V42.2806H46.2604V14.3911Z" fill="#BFCDDD"/>
<path d="M47.4636 21.1461H46.4438V42.2806H47.4636V21.1461Z" fill="#BFCDDD"/>
<path d="M48.6667 20.7118H47.647V38.8044H48.6667V20.7118Z" fill="#BFCDDD"/>
<path d="M49.8698 22.8845H48.8501V35.9603H49.8698V22.8845Z" fill="#BFCDDD"/>
<path d="M51.0734 25.2546H50.0537V31.7727H51.0734V25.2546Z" fill="#BFCDDD"/>
<path d="M52.2761 23.9511H51.2563V33.0763H52.2761V23.9511Z" fill="#BFCDDD"/>
<path d="M53.4802 23.5559H52.4604V34.1033H53.4802V23.5559Z" fill="#BFCDDD"/>
<path d="M54.6833 21.4227H53.6636V36.5921H54.6833V21.4227Z" fill="#BFCDDD"/>
<path d="M55.8854 17.2355H54.8657V40.8192H55.8854V17.2355Z" fill="#BFCDDD"/>
<path d="M57.0895 23.872H56.0698V34.1825H57.0895V23.872Z" fill="#BFCDDD"/>
<path d="M58.2927 25.6494H57.2729V31.4171H58.2927V25.6494Z" fill="#BFCDDD"/>
<path d="M59.4948 26.2421H58.4751V30.6271H59.4948V26.2421Z" fill="#BFCDDD"/>
<path d="M60.6979 26.8347H59.6782V29.837H60.6979V26.8347Z" fill="#BFCDDD"/>
<path d="M61.9011 21.8179H60.8813V35.8416H61.9011V21.8179Z" fill="#BFCDDD"/>
<path d="M63.1042 24.9386H62.0845V33.8664H63.1042V24.9386Z" fill="#BFCDDD"/>
<path d="M64.3083 24.9386H63.2886V34.4194H64.3083V24.9386Z" fill="#BFCDDD"/>
<path d="M65.5104 25.2942H64.4907V32.4837H65.5104V25.2942Z" fill="#BFCDDD"/>
<path d="M66.7145 19.3687H65.6948V41.5302H66.7145V19.3687Z" fill="#BFCDDD"/>
<path d="M67.9177 26.4003H66.8979V34.222H67.9177V26.4003Z" fill="#BFCDDD"/>
<path d="M69.1208 26.9929H68.1011V30.4692H69.1208V26.9929Z" fill="#BFCDDD"/>
<path d="M70.3239 17.5512H69.3042V40.4632H70.3239V17.5512Z" fill="#BFCDDD"/>
<path d="M71.527 26.4003H70.5073V31.5753H71.527V26.4003Z" fill="#BFCDDD"/>
<path d="M72.7302 26.4003H71.7104V32.2862H72.7302V26.4003Z" fill="#BFCDDD"/>
<path d="M73.9333 16.4059H72.9136V43.7029H73.9333V16.4059Z" fill="#BFCDDD"/>
<path d="M75.136 15.4181H74.1172V41.214H75.136V15.4181Z" fill="#BFCDDD"/>
<path d="M76.3381 26.6768H75.3193V32.1284H76.3381V26.6768Z" fill="#BFCDDD"/>
<path d="M77.5422 23.161H76.5234V34.4194H77.5422V23.161Z" fill="#BFCDDD"/>
<path d="M78.7453 23.161H77.7256V34.6959H78.7453V23.161Z" fill="#BFCDDD"/>
<path d="M79.9494 24.899H78.9297V32.4442H79.9494V24.899Z" fill="#BFCDDD"/>
<path d="M81.152 25.2546H80.1323V32.0493H81.152V25.2546Z" fill="#BFCDDD"/>
<path d="M82.3552 23.5163H81.3354V35.5256H82.3552V23.5163Z" fill="#BFCDDD"/>
<path d="M83.5588 23.872H82.5391V33.1159H83.5588V23.872Z" fill="#BFCDDD"/>
<path d="M84.761 23.8324H83.7422V33.0763H84.761V23.8324Z" fill="#BFCDDD"/>
<path d="M85.9641 27.3087H84.9453V29.9949H85.9641V27.3087Z" fill="#BFCDDD"/>
<path d="M87.1677 23.872H86.1489V33.1159H87.1677V23.872Z" fill="#BFCDDD"/>
<path d="M88.3704 26.3607H87.3516V32.6814H88.3704V26.3607Z" fill="#BFCDDD"/>
<path d="M89.5744 27.2691H88.5547V29.9554H89.5744V27.2691Z" fill="#BFCDDD"/>
<path d="M90.7785 22.4893H89.7588V35.9599H90.7785V22.4893Z" fill="#BFCDDD"/>
<path d="M91.9802 18.223H90.9604V40.4636H91.9802V18.223Z" fill="#BFCDDD"/>
<path d="M93.1838 21.0671H92.1641V31.7332H93.1838V21.0671Z" fill="#BFCDDD"/>
<path d="M94.3869 27.7434H93.3672V30.4297H94.3869V27.7434Z" fill="#BFCDDD"/>
<path d="M103.663 19.9613H102.644V36.9477H103.663V19.9613Z" fill="#BFCDDD"/>
<path d="M104.886 18.6178H103.866V43.1099H104.886V18.6178Z" fill="#BFCDDD"/>
<path d="M106.11 6.37198H105.09V54.5269H106.11V6.37198Z" fill="#BFCDDD"/>
<path d="M107.332 17.3539H106.312V47.2187H107.332V17.3539Z" fill="#BFCDDD"/>
<path d="M108.554 24.899H107.535V34.8539H108.554V24.899Z" fill="#BFCDDD"/>
<path d="M109.777 20.5931H108.758V39.1205H109.777V20.5931Z" fill="#BFCDDD"/>
<path d="M111.103 25.2546H110.083V32.6419H111.103V25.2546Z" fill="#BFCDDD"/>
<path d="M102.439 26.4003H101.42V30.9827H102.439V26.4003Z" fill="#BFCDDD"/>
<path d="M112.327 23.1214H111.307V34.1428H112.327V23.1214Z" fill="#BFCDDD"/>
<path d="M113.549 22.0549H112.53V35.9995H113.549V22.0549Z" fill="#BFCDDD"/>
<path d="M114.772 13.601H113.753V44.3743H114.772V13.601Z" fill="#BFCDDD"/>
<path d="M115.995 13.0875H114.976V45.4804H115.995V13.0875Z" fill="#BFCDDD"/>
<path d="M117.22 23.5163H116.2V34.7355H117.22V23.5163Z" fill="#BFCDDD"/>
<path d="M118.443 25.1755H117.423V32.7602H118.443V25.1755Z" fill="#BFCDDD"/>
<path d="M119.666 27.1112H118.646V29.7975H119.666V27.1112Z" fill="#BFCDDD"/>
<path d="M120.889 24.7807H119.869V32.3654H120.889V24.7807Z" fill="#BFCDDD"/>
<path d="M122.112 25.373H121.093V32.6811H122.112V25.373Z" fill="#BFCDDD"/>
<path d="M125.781 24.9386H124.761V33.1159H125.781V24.9386Z" fill="#BFCDDD"/>
<path d="M124.558 25.5312H123.539V32.8393H124.558V25.5312Z" fill="#BFCDDD"/>
<path d="M123.334 26.4003H122.315V30.6666H123.334V26.4003Z" fill="#BFCDDD"/>
<path d="M127.005 21.4227H125.985V37.2635H127.005V21.4227Z" fill="#BFCDDD"/>
<path d="M128.329 24.9781H127.31V32.5233H128.329V24.9781Z" fill="#BFCDDD"/>
<path d="M129.552 14.0354H128.533V43.663H129.552V14.0354Z" fill="#BFCDDD"/>
<path d="M130.776 20.7513H129.756V35.7233H130.776V20.7513Z" fill="#BFCDDD"/>
<path d="M131.999 17.1564H130.979V38.8439H131.999V17.1564Z" fill="#BFCDDD"/>
<path d="M133.222 18.9339H132.203V40.5819H133.222V18.9339Z" fill="#BFCDDD"/>
<path d="M134.445 24.8202H133.426V32.9975H134.445V24.8202Z" fill="#BFCDDD"/>
<path d="M135.667 24.5041H134.648V32.6814H135.667V24.5041Z" fill="#BFCDDD"/>
<path d="M136.89 27.783H135.872V30.4692H136.89V27.783Z" fill="#BFCDDD"/>
<path d="M138.115 23.161H137.096V37.8564H138.115V23.161Z" fill="#BFCDDD"/>
<path d="M139.338 20.3957H138.318V41.5302H139.338V20.3957Z" fill="#BFCDDD"/>
<path d="M140.561 23.5559H139.541V29.9161H140.561V23.5559Z" fill="#BFCDDD"/>
<path d="M141.783 25.3338H140.764V32.2075H141.783V25.3338Z" fill="#BFCDDD"/>
<path d="M143.006 26.7164H141.987V31.0223H143.006V26.7164Z" fill="#BFCDDD"/>
<path d="M144.333 15.3786H143.313V42.3199H144.333V15.3786Z" fill="#BFCDDD"/>
<path d="M145.556 10.5592H144.536V45.7965H145.556V10.5592Z" fill="#BFCDDD"/>
<path d="M146.778 16.7612H145.759V38.4883H146.778V16.7612Z" fill="#BFCDDD"/>
<path d="M148.002 27.3878H146.983V30.5875H148.002V27.3878Z" fill="#BFCDDD"/>
<path d="M149.225 27.6247H148.206V29.837H149.225V27.6247Z" fill="#BFCDDD"/>
<path d="M150.448 26.2421H149.429V31.4567H150.448V26.2421Z" fill="#BFCDDD"/>
<path d="M151.671 26.9929H150.651V30.1926H151.671V26.9929Z" fill="#BFCDDD"/>
<path d="M163.19 24.2671H162.17V32.6814H163.19V24.2671Z" fill="#BFCDDD"/>
<path d="M164.412 21.1461H163.394V36.8291H164.412V21.1461Z" fill="#BFCDDD"/>
<path d="M165.635 15.5763H164.616V40.9771H165.635V15.5763Z" fill="#BFCDDD"/>
<path d="M166.859 23.9906H165.839V42.7154H166.859V23.9906Z" fill="#BFCDDD"/>
<path d="M168.081 24.5829H167.062V35.0513H168.081V24.5829Z" fill="#BFCDDD"/>
<path d="M169.305 19.7635H168.285V37.1452H169.305V19.7635Z" fill="#BFCDDD"/>
<path d="M170.631 19.2104H169.611V40.8584H170.631V19.2104Z" fill="#BFCDDD"/>
<path d="M161.966 26.0842H160.946V30.6666H161.966V26.0842Z" fill="#BFCDDD"/>
<path d="M171.852 20.7906H170.833V36.8687H171.852V20.7906Z" fill="#BFCDDD"/>
<path d="M173.077 24.662H172.057V33.2737H173.077V24.662Z" fill="#BFCDDD"/>
<path d="M174.299 10.4013H173.28V45.125H174.299V10.4013Z" fill="#BFCDDD"/>
<path d="M175.523 11.6653H174.503V43.3077H175.523V11.6653Z" fill="#BFCDDD"/>
<path d="M176.746 19.1709H175.726V39.2784H176.746V19.1709Z" fill="#BFCDDD"/>
<path d="M177.969 18.3021H176.95V39.8314H177.969V18.3021Z" fill="#BFCDDD"/>
<path d="M179.193 26.7951H178.173V34.222H179.193V26.7951Z" fill="#BFCDDD"/>
<path d="M180.416 17.3142H179.396V36.2364H180.416V17.3142Z" fill="#BFCDDD"/>
<path d="M181.639 19.4474H180.619V42.9916H181.639V19.4474Z" fill="#BFCDDD"/>
<path d="M185.307 26.5186H184.289V31.1405H185.307V26.5186Z" fill="#BFCDDD"/>
<path d="M184.084 24.9386H183.065V34.5381H184.084V24.9386Z" fill="#BFCDDD"/>
<path d="M182.862 18.0255H181.843V46.2707H182.862V18.0255Z" fill="#BFCDDD"/>
<path d="M186.53 24.9386H185.511V30.7458H186.53V24.9386Z" fill="#BFCDDD"/>
<path d="M187.857 22.8449H186.837V35.2886H187.857V22.8449Z" fill="#BFCDDD"/>
<path d="M189.08 24.9386H188.06V33.1159H189.08V24.9386Z" fill="#BFCDDD"/>
<path d="M190.303 22.7263H189.283V35.4069H190.303V22.7263Z" fill="#BFCDDD"/>
<path d="M191.525 24.6224H190.506V30.6666H191.525V24.6224Z" fill="#BFCDDD"/>
<path d="M192.749 19.25H191.729V36.9869H192.749V19.25Z" fill="#BFCDDD"/>
<path d="M193.972 25.6103H192.953V31.7332H193.972V25.6103Z" fill="#BFCDDD"/>
<path d="M195.196 24.7016H194.176V31.1801H195.196V24.7016Z" fill="#BFCDDD"/>
<path d="M196.419 27.4669H195.399V30.1531H196.419V27.4669Z" fill="#BFCDDD"/>
<path d="M197.641 13.1271H196.622V47.2187H197.641V13.1271Z" fill="#BFCDDD"/>
<path d="M198.865 20.0796H197.846V39.5153H198.865V20.0796Z" fill="#BFCDDD"/>
<path d="M200.088 24.662H199.068V29.5605H200.088V24.662Z" fill="#BFCDDD"/>
<path d="M201.31 26.3212H200.291V32.4837H201.31V26.3212Z" fill="#BFCDDD"/>
<path d="M202.534 24.6224H201.514V30.7061H202.534V24.6224Z" fill="#BFCDDD"/>
<path d="M203.859 27.7434H202.839V29.7583H203.859V27.7434Z" fill="#BFCDDD"/>
<path d="M205.082 27.9408H204.063V29.2839H205.082V27.9408Z" fill="#BFCDDD"/>
<path d="M206.306 27.9408H205.286V29.5209H206.306V27.9408Z" fill="#BFCDDD"/>
<path d="M207.529 27.0717H206.509V30.2714H207.529V27.0717Z" fill="#BFCDDD"/>
<path d="M208.752 27.3087H207.732V29.5209H208.752V27.3087Z" fill="#BFCDDD"/>
<path d="M209.976 28.3753H208.956V29.4023H209.976V28.3753Z" fill="#BFCDDD"/>
<path d="M211.198 27.9013H210.179V29.363H211.198V27.9013Z" fill="#BFCDDD"/>
<path d="M213.544 27.8617H212.524V29.6H213.544V27.8617Z" fill="#BFCDDD"/>
<path d="M214.357 9.69003H213.338V45.8357H214.357V9.69003Z" fill="#BFCDDD"/>
<path d="M215.784 0.60434H214.765V55.3956H215.784V0.60434Z" fill="#BFCDDD"/>
<path d="M217.008 25.3338H215.989V31.6545H217.008V25.3338Z" fill="#BFCDDD"/>
<path d="M218.232 25.3338H217.212V32.0493H218.232V25.3338Z" fill="#BFCDDD"/>
<path d="M219.454 23.2793H218.435V34.4985H219.454V23.2793Z" fill="#BFCDDD"/>
<path d="M220.78 24.9781H219.76V32.7207H220.78V24.9781Z" fill="#BFCDDD"/>
<path d="M222.41 27.7434H221.391V29.2052H222.41V27.7434Z" fill="#BFCDDD"/>
<path d="M224.652 23.161H223.633V34.3011H224.652V23.161Z" fill="#BFCDDD"/>
<path d="M225.877 24.7016H224.857V32.4441H225.877V24.7016Z" fill="#BFCDDD"/>
<path d="M227.303 27.4669H226.284V29.7187H227.303V27.4669Z" fill="#BFCDDD"/>
<path d="M228.628 19.25H227.608V39.1596H228.628V19.25Z" fill="#BFCDDD"/>
<path d="M230.054 18.8156H229.035V40.7401H230.054V18.8156Z" fill="#BFCDDD"/>
<path d="M231.483 23.872H230.463V34.222H231.483V23.872Z" fill="#BFCDDD"/>
<path d="M232.603 15.8924H231.583V42.2807H232.603V15.8924Z" fill="#BFCDDD"/>
<path d="M234.03 23.7928H233.011V35.2094H234.03V23.7928Z" fill="#BFCDDD"/>
<path d="M235.355 24.188H234.336V32.3653H235.355V24.188Z" fill="#BFCDDD"/>
<path d="M236.68 25.6103H235.661V31.7332H236.68V25.6103Z" fill="#BFCDDD"/>
<path d="M238.007 27.5852H236.987V29.6788H238.007V27.5852Z" fill="#BFCDDD"/>
<mask id="mask0_181_8980" style="mask-type:alpha" maskUnits="userSpaceOnUse" x="0" y="0" width="243" height="56">
<path d="M243 28.2965H0V28.9679H243V28.2965Z" fill="#BFCDDD"/>
<path d="M2.81609 20.4748H1.79639V37.4613H2.81609V20.4748Z" fill="#BFCDDD"/>
<path d="M1.42693 27.5456H0.407227V30.3901H1.42693V27.5456Z" fill="#BFCDDD"/>
<path d="M4.20574 23.3189H3.18604V34.3007H4.20574V23.3189Z" fill="#BFCDDD"/>
<path d="M5.59588 24.0298H4.57617V33.2342H5.59588V24.0298Z" fill="#BFCDDD"/>
<path d="M6.98504 16.9982H5.96533V50.5763H6.98504V16.9982Z" fill="#BFCDDD"/>
<path d="M8.37469 13.4036H7.35498V50.8531H8.37469V13.4036Z" fill="#BFCDDD"/>
<path d="M9.76385 19.4082H8.74414V37.4613H9.76385V19.4082Z" fill="#BFCDDD"/>
<path d="M11.1525 19.1317H10.1328V35.7233H11.1525V19.1317Z" fill="#BFCDDD"/>
<path d="M12.5427 15.3786H11.5229V52.8281H12.5427V15.3786Z" fill="#BFCDDD"/>
<path d="M13.9323 21.3831H12.9126V39.4362H13.9323V21.3831Z" fill="#BFCDDD"/>
<path d="M15.322 16.6034H14.3022V40.5032H15.322V16.6034Z" fill="#BFCDDD"/>
<path d="M16.7111 16.6429H15.6914V40.5427H16.7111V16.6429Z" fill="#BFCDDD"/>
<path d="M18.1012 20.3166H17.0815V40.5423H18.1012V20.3166Z" fill="#BFCDDD"/>
<path d="M19.4909 23.2006H18.4712V37.343H19.4909V23.2006Z" fill="#BFCDDD"/>
<path d="M20.8801 25.1755H19.8604V32.3258H20.8801V25.1755Z" fill="#BFCDDD"/>
<path d="M22.2697 25.6891H21.25V32.3255H22.2697V25.6891Z" fill="#BFCDDD"/>
<path d="M23.6598 27.4273H22.6401V30.2714H23.6598V27.4273Z" fill="#BFCDDD"/>
<path d="M25.0485 26.3607H24.0288V30.9036H25.0485V26.3607Z" fill="#BFCDDD"/>
<path d="M26.4377 25.8473H25.418V30.9827H26.4377V25.8473Z" fill="#BFCDDD"/>
<path d="M27.8278 27.1112H26.8081V29.9557H27.8278V27.1112Z" fill="#BFCDDD"/>
<path d="M34.2287 20.1191H33.209V37.1056H34.2287V20.1191Z" fill="#BFCDDD"/>
<path d="M35.4323 22.9633H34.4126V33.9451H35.4323V22.9633Z" fill="#BFCDDD"/>
<path d="M36.6349 16.6429H35.6152V50.221H36.6349V16.6429Z" fill="#BFCDDD"/>
<path d="M37.8381 13.048H36.8184V50.4976H37.8381V13.048Z" fill="#BFCDDD"/>
<path d="M39.0412 19.0526H38.0215V37.1056H39.0412V19.0526Z" fill="#BFCDDD"/>
<path d="M40.2443 18.776H39.2246V35.3677H40.2443V18.776Z" fill="#BFCDDD"/>
<path d="M41.4484 23.872H40.4287V33.5503H41.4484V23.872Z" fill="#BFCDDD"/>
<path d="M33.0256 27.3087H32.0059V30.1528H33.0256V27.3087Z" fill="#BFCDDD"/>
<path d="M42.6506 24.5829H41.6309V32.7207H42.6506V24.5829Z" fill="#BFCDDD"/>
<path d="M43.8537 23.9511H42.834V31.3384H43.8537V23.9511Z" fill="#BFCDDD"/>
<path d="M45.0573 20.3561H44.0376V40.1079H45.0573V20.3561Z" fill="#BFCDDD"/>
<path d="M46.2604 14.3911H45.2407V42.2806H46.2604V14.3911Z" fill="#BFCDDD"/>
<path d="M47.4636 21.1461H46.4438V42.2806H47.4636V21.1461Z" fill="#BFCDDD"/>
<path d="M48.6667 20.7118H47.647V38.8044H48.6667V20.7118Z" fill="#BFCDDD"/>
<path d="M49.8698 22.8845H48.8501V35.9603H49.8698V22.8845Z" fill="#BFCDDD"/>
<path d="M51.0734 25.2546H50.0537V31.7727H51.0734V25.2546Z" fill="#BFCDDD"/>
<path d="M52.2761 23.9511H51.2563V33.0763H52.2761V23.9511Z" fill="#BFCDDD"/>
<path d="M53.4802 23.5559H52.4604V34.1033H53.4802V23.5559Z" fill="#BFCDDD"/>
<path d="M54.6833 21.4227H53.6636V36.5921H54.6833V21.4227Z" fill="#BFCDDD"/>
<path d="M55.8854 17.2355H54.8657V40.8192H55.8854V17.2355Z" fill="#BFCDDD"/>
<path d="M57.0895 23.872H56.0698V34.1825H57.0895V23.872Z" fill="#BFCDDD"/>
<path d="M58.2927 25.6494H57.2729V31.4171H58.2927V25.6494Z" fill="#BFCDDD"/>
<path d="M59.4948 26.2421H58.4751V30.6271H59.4948V26.2421Z" fill="#BFCDDD"/>
<path d="M60.6979 26.8347H59.6782V29.837H60.6979V26.8347Z" fill="#BFCDDD"/>
<path d="M61.9011 21.8179H60.8813V35.8416H61.9011V21.8179Z" fill="#BFCDDD"/>
<path d="M63.1042 24.9386H62.0845V33.8664H63.1042V24.9386Z" fill="#BFCDDD"/>
<path d="M64.3083 24.9386H63.2886V34.4194H64.3083V24.9386Z" fill="#BFCDDD"/>
<path d="M65.5104 25.2942H64.4907V32.4837H65.5104V25.2942Z" fill="#BFCDDD"/>
<path d="M66.7145 19.3687H65.6948V41.5302H66.7145V19.3687Z" fill="#BFCDDD"/>
<path d="M67.9177 26.4003H66.8979V34.222H67.9177V26.4003Z" fill="#BFCDDD"/>
<path d="M69.1208 26.9929H68.1011V30.4692H69.1208V26.9929Z" fill="#BFCDDD"/>
<path d="M70.3239 17.5512H69.3042V40.4632H70.3239V17.5512Z" fill="#BFCDDD"/>
<path d="M71.527 26.4003H70.5073V31.5753H71.527V26.4003Z" fill="#BFCDDD"/>
<path d="M72.7302 26.4003H71.7104V32.2862H72.7302V26.4003Z" fill="#BFCDDD"/>
<path d="M73.9333 16.4059H72.9136V43.7029H73.9333V16.4059Z" fill="#BFCDDD"/>
<path d="M75.136 15.4181H74.1172V41.214H75.136V15.4181Z" fill="#BFCDDD"/>
<path d="M76.3381 26.6768H75.3193V32.1284H76.3381V26.6768Z" fill="#BFCDDD"/>
<path d="M77.5422 23.161H76.5234V34.4194H77.5422V23.161Z" fill="#BFCDDD"/>
<path d="M78.7453 23.161H77.7256V34.6959H78.7453V23.161Z" fill="#BFCDDD"/>
<path d="M79.9494 24.899H78.9297V32.4442H79.9494V24.899Z" fill="#BFCDDD"/>
<path d="M81.152 25.2546H80.1323V32.0493H81.152V25.2546Z" fill="#BFCDDD"/>
<path d="M82.3552 23.5163H81.3354V35.5256H82.3552V23.5163Z" fill="#BFCDDD"/>
<path d="M83.5588 23.872H82.5391V33.1159H83.5588V23.872Z" fill="#BFCDDD"/>
<path d="M84.761 23.8324H83.7422V33.0763H84.761V23.8324Z" fill="#BFCDDD"/>
<path d="M85.9641 27.3087H84.9453V29.9949H85.9641V27.3087Z" fill="#BFCDDD"/>
<path d="M87.1677 23.872H86.1489V33.1159H87.1677V23.872Z" fill="#BFCDDD"/>
<path d="M88.3704 26.3607H87.3516V32.6814H88.3704V26.3607Z" fill="#BFCDDD"/>
<path d="M89.5744 27.2691H88.5547V29.9554H89.5744V27.2691Z" fill="#BFCDDD"/>
<path d="M90.7785 22.4893H89.7588V35.9599H90.7785V22.4893Z" fill="#BFCDDD"/>
<path d="M91.9802 18.223H90.9604V40.4636H91.9802V18.223Z" fill="#BFCDDD"/>
<path d="M93.1838 21.0671H92.1641V31.7332H93.1838V21.0671Z" fill="#BFCDDD"/>
<path d="M94.3869 27.7434H93.3672V30.4297H94.3869V27.7434Z" fill="#BFCDDD"/>
<path d="M103.663 19.9613H102.644V36.9477H103.663V19.9613Z" fill="#BFCDDD"/>
<path d="M104.886 18.6178H103.866V43.1099H104.886V18.6178Z" fill="#BFCDDD"/>
<path d="M106.11 6.37198H105.09V54.5269H106.11V6.37198Z" fill="#BFCDDD"/>
<path d="M107.332 17.3539H106.312V47.2187H107.332V17.3539Z" fill="#BFCDDD"/>
<path d="M108.554 24.899H107.535V34.8539H108.554V24.899Z" fill="#BFCDDD"/>
<path d="M109.777 20.5931H108.758V39.1205H109.777V20.5931Z" fill="#BFCDDD"/>
<path d="M111.103 25.2546H110.083V32.6419H111.103V25.2546Z" fill="#BFCDDD"/>
<path d="M102.439 26.4003H101.42V30.9827H102.439V26.4003Z" fill="#BFCDDD"/>
<path d="M112.327 23.1214H111.307V34.1428H112.327V23.1214Z" fill="#BFCDDD"/>
<path d="M113.549 22.0549H112.53V35.9995H113.549V22.0549Z" fill="#BFCDDD"/>
<path d="M114.772 13.601H113.753V44.3743H114.772V13.601Z" fill="#BFCDDD"/>
<path d="M115.995 13.0875H114.976V45.4804H115.995V13.0875Z" fill="#BFCDDD"/>
<path d="M117.22 23.5163H116.2V34.7355H117.22V23.5163Z" fill="#BFCDDD"/>
<path d="M118.443 25.1755H117.423V32.7602H118.443V25.1755Z" fill="#BFCDDD"/>
<path d="M119.666 27.1112H118.646V29.7975H119.666V27.1112Z" fill="#BFCDDD"/>
<path d="M120.889 24.7807H119.869V32.3654H120.889V24.7807Z" fill="#BFCDDD"/>
<path d="M122.112 25.373H121.093V32.6811H122.112V25.373Z" fill="#BFCDDD"/>
<path d="M125.781 24.9386H124.761V33.1159H125.781V24.9386Z" fill="#BFCDDD"/>
<path d="M124.558 25.5312H123.539V32.8393H124.558V25.5312Z" fill="#BFCDDD"/>
<path d="M123.334 26.4003H122.315V30.6666H123.334V26.4003Z" fill="#BFCDDD"/>
<path d="M127.005 21.4227H125.985V37.2635H127.005V21.4227Z" fill="#BFCDDD"/>
<path d="M128.329 24.9781H127.31V32.5233H128.329V24.9781Z" fill="#BFCDDD"/>
<path d="M129.552 14.0354H128.533V43.663H129.552V14.0354Z" fill="#BFCDDD"/>
<path d="M130.776 20.7513H129.756V35.7233H130.776V20.7513Z" fill="#BFCDDD"/>
<path d="M131.999 17.1564H130.979V38.8439H131.999V17.1564Z" fill="#BFCDDD"/>
<path d="M133.222 18.9339H132.203V40.5819H133.222V18.9339Z" fill="#BFCDDD"/>
<path d="M134.445 24.8202H133.426V32.9975H134.445V24.8202Z" fill="#BFCDDD"/>
<path d="M135.667 24.5041H134.648V32.6814H135.667V24.5041Z" fill="#BFCDDD"/>
<path d="M136.89 27.783H135.872V30.4692H136.89V27.783Z" fill="#BFCDDD"/>
<path d="M138.115 23.161H137.096V37.8564H138.115V23.161Z" fill="#BFCDDD"/>
<path d="M139.338 20.3957H138.318V41.5302H139.338V20.3957Z" fill="#BFCDDD"/>
<path d="M140.561 23.5559H139.541V29.9161H140.561V23.5559Z" fill="#BFCDDD"/>
<path d="M141.783 25.3338H140.764V32.2075H141.783V25.3338Z" fill="#BFCDDD"/>
<path d="M143.006 26.7164H141.987V31.0223H143.006V26.7164Z" fill="#BFCDDD"/>
<path d="M144.333 15.3786H143.313V42.3199H144.333V15.3786Z" fill="#BFCDDD"/>
<path d="M145.556 10.5592H144.536V45.7965H145.556V10.5592Z" fill="#BFCDDD"/>
<path d="M146.778 16.7612H145.759V38.4883H146.778V16.7612Z" fill="#BFCDDD"/>
<path d="M148.002 27.3878H146.983V30.5875H148.002V27.3878Z" fill="#BFCDDD"/>
<path d="M149.225 27.6247H148.206V29.837H149.225V27.6247Z" fill="#BFCDDD"/>
<path d="M150.448 26.2421H149.429V31.4567H150.448V26.2421Z" fill="#BFCDDD"/>
<path d="M151.671 26.9929H150.651V30.1926H151.671V26.9929Z" fill="#BFCDDD"/>
<path d="M163.19 24.2671H162.17V32.6814H163.19V24.2671Z" fill="#BFCDDD"/>
<path d="M164.412 21.1461H163.394V36.8291H164.412V21.1461Z" fill="#BFCDDD"/>
<path d="M165.635 15.5763H164.616V40.9771H165.635V15.5763Z" fill="#BFCDDD"/>
<path d="M166.859 23.9906H165.839V42.7154H166.859V23.9906Z" fill="#BFCDDD"/>
<path d="M168.081 24.5829H167.062V35.0513H168.081V24.5829Z" fill="#BFCDDD"/>
<path d="M169.305 19.7635H168.285V37.1452H169.305V19.7635Z" fill="#BFCDDD"/>
<path d="M170.631 19.2104H169.611V40.8584H170.631V19.2104Z" fill="#BFCDDD"/>
<path d="M161.966 26.0842H160.946V30.6666H161.966V26.0842Z" fill="#BFCDDD"/>
<path d="M171.852 20.7906H170.833V36.8687H171.852V20.7906Z" fill="#BFCDDD"/>
<path d="M173.077 24.662H172.057V33.2737H173.077V24.662Z" fill="#BFCDDD"/>
<path d="M174.299 10.4013H173.28V45.125H174.299V10.4013Z" fill="#BFCDDD"/>
<path d="M175.523 11.6653H174.503V43.3077H175.523V11.6653Z" fill="#BFCDDD"/>
<path d="M176.746 19.1709H175.726V39.2784H176.746V19.1709Z" fill="#BFCDDD"/>
<path d="M177.969 18.3021H176.95V39.8314H177.969V18.3021Z" fill="#BFCDDD"/>
<path d="M179.193 26.7951H178.173V34.222H179.193V26.7951Z" fill="#BFCDDD"/>
<path d="M180.416 17.3142H179.396V36.2364H180.416V17.3142Z" fill="#BFCDDD"/>
<path d="M181.639 19.4474H180.619V42.9916H181.639V19.4474Z" fill="#BFCDDD"/>
<path d="M185.307 26.5186H184.289V31.1405H185.307V26.5186Z" fill="#BFCDDD"/>
<path d="M184.084 24.9386H183.065V34.5381H184.084V24.9386Z" fill="#BFCDDD"/>
<path d="M182.862 18.0255H181.843V46.2707H182.862V18.0255Z" fill="#BFCDDD"/>
<path d="M186.53 24.9386H185.511V30.7458H186.53V24.9386Z" fill="#BFCDDD"/>
<path d="M187.857 22.8449H186.837V35.2886H187.857V22.8449Z" fill="#BFCDDD"/>
<path d="M189.08 24.9386H188.06V33.1159H189.08V24.9386Z" fill="#BFCDDD"/>
<path d="M190.303 22.7263H189.283V35.4069H190.303V22.7263Z" fill="#BFCDDD"/>
<path d="M191.525 24.6224H190.506V30.6666H191.525V24.6224Z" fill="#BFCDDD"/>
<path d="M192.749 19.25H191.729V36.9869H192.749V19.25Z" fill="#BFCDDD"/>
<path d="M193.972 25.6103H192.953V31.7332H193.972V25.6103Z" fill="#BFCDDD"/>
<path d="M195.196 24.7016H194.176V31.1801H195.196V24.7016Z" fill="#BFCDDD"/>
<path d="M196.419 27.4669H195.399V30.1531H196.419V27.4669Z" fill="#BFCDDD"/>
<path d="M197.641 13.1271H196.622V47.2187H197.641V13.1271Z" fill="#BFCDDD"/>
<path d="M198.865 20.0796H197.846V39.5153H198.865V20.0796Z" fill="#BFCDDD"/>
<path d="M200.088 24.662H199.068V29.5605H200.088V24.662Z" fill="#BFCDDD"/>
<path d="M201.31 26.3212H200.291V32.4837H201.31V26.3212Z" fill="#BFCDDD"/>
<path d="M202.534 24.6224H201.514V30.7061H202.534V24.6224Z" fill="#BFCDDD"/>
<path d="M203.859 27.7434H202.839V29.7583H203.859V27.7434Z" fill="#BFCDDD"/>
<path d="M205.082 27.9408H204.063V29.2839H205.082V27.9408Z" fill="#BFCDDD"/>
<path d="M206.306 27.9408H205.286V29.5209H206.306V27.9408Z" fill="#BFCDDD"/>
<path d="M207.529 27.0717H206.509V30.2714H207.529V27.0717Z" fill="#BFCDDD"/>
<path d="M208.752 27.3087H207.732V29.5209H208.752V27.3087Z" fill="#BFCDDD"/>
<path d="M209.976 28.3753H208.956V29.4023H209.976V28.3753Z" fill="#BFCDDD"/>
<path d="M211.198 27.9013H210.179V29.363H211.198V27.9013Z" fill="#BFCDDD"/>
<path d="M213.544 27.8617H212.524V29.6H213.544V27.8617Z" fill="#BFCDDD"/>
<path d="M214.357 9.69003H213.338V45.8357H214.357V9.69003Z" fill="#BFCDDD"/>
<path d="M215.784 0.60434H214.765V55.3956H215.784V0.60434Z" fill="#BFCDDD"/>
<path d="M217.008 25.3338H215.989V31.6545H217.008V25.3338Z" fill="#BFCDDD"/>
<path d="M218.232 25.3338H217.212V32.0493H218.232V25.3338Z" fill="#BFCDDD"/>
<path d="M219.454 23.2793H218.435V34.4985H219.454V23.2793Z" fill="#BFCDDD"/>
<path d="M220.78 24.9781H219.76V32.7207H220.78V24.9781Z" fill="#BFCDDD"/>
<path d="M222.41 27.7434H221.391V29.2052H222.41V27.7434Z" fill="#BFCDDD"/>
<path d="M224.652 23.161H223.633V34.3011H224.652V23.161Z" fill="#BFCDDD"/>
<path d="M225.877 24.7016H224.857V32.4441H225.877V24.7016Z" fill="#BFCDDD"/>
<path d="M227.303 27.4669H226.284V29.7187H227.303V27.4669Z" fill="#BFCDDD"/>
<path d="M228.628 19.25H227.608V39.1596H228.628V19.25Z" fill="#BFCDDD"/>
<path d="M230.054 18.8156H229.035V40.7401H230.054V18.8156Z" fill="#BFCDDD"/>
<path d="M231.483 23.872H230.463V34.222H231.483V23.872Z" fill="#BFCDDD"/>
<path d="M232.603 15.8924H231.583V42.2807H232.603V15.8924Z" fill="#BFCDDD"/>
<path d="M234.03 23.7928H233.011V35.2094H234.03V23.7928Z" fill="#BFCDDD"/>
<path d="M235.355 24.188H234.336V32.3653H235.355V24.188Z" fill="#BFCDDD"/>
<path d="M236.68 25.6103H235.661V31.7332H236.68V25.6103Z" fill="#BFCDDD"/>
<path d="M238.007 27.5852H236.987V29.6788H238.007V27.5852Z" fill="#BFCDDD"/>
</mask>
<g mask="url(#mask0_181_8980)">
<rect y="0.60434" width="189" height="55" fill="#F2B705"/>
</g>
</svg>
