<svg width="605" height="668" viewBox="0 0 605 668" fill="none" xmlns="http://www.w3.org/2000/svg">
<path d="M480.362 298.077L546.914 327.939C546.914 327.939 554.966 333.768 548.078 376.02C541.19 418.271 527.462 423.882 527.462 423.882L452.981 433.123L480.362 298.077Z" fill="#F2B705"/>
<path fill-rule="evenodd" clip-rule="evenodd" d="M480.362 298.077L452.981 433.123L527.462 423.882C527.462 423.882 541.19 418.271 548.078 376.02C554.966 333.768 546.914 327.939 546.914 327.939L480.362 298.077ZM485.176 307.451L461.249 425.465L525.211 417.529C525.285 417.471 525.365 417.405 525.451 417.332C526.311 416.6 527.824 415.081 529.65 412.238C533.318 406.527 538.236 395.489 541.582 374.961C544.968 354.195 544.572 342.978 543.592 337.244C543.237 335.167 542.819 333.893 542.526 333.183L485.176 307.451Z" fill="black"/>
<path d="M401.391 205.262C401.391 205.262 432.711 254.001 481.903 294.613C531.096 335.224 486.759 420.666 467.839 430.679C448.918 440.693 343.198 492.285 343.198 492.285L401.391 205.262Z" fill="#0B4B7E"/>
<path fill-rule="evenodd" clip-rule="evenodd" d="M350.651 488.644C345.952 490.941 343.198 492.285 343.198 492.285L401.391 205.262C401.391 205.262 403.179 208.044 406.571 212.833C417.377 228.088 444.464 263.704 481.903 294.613C531.096 335.224 486.759 420.666 467.839 430.679C451.972 439.077 375.064 476.714 350.651 488.644ZM352.3 480.513C353.796 479.782 355.407 478.993 357.12 478.155C367.325 473.163 381.128 466.403 395.521 459.331C424.371 445.154 455.412 429.81 464.76 424.863C466.074 424.167 468.207 422.44 470.922 419.311C473.55 416.281 476.424 412.286 479.297 407.512C485.045 397.958 490.569 385.644 494.05 372.442C501.093 345.73 499.359 317.558 477.714 299.688C452.676 279.018 432.242 256.33 418.086 238.85C412.741 232.25 408.279 226.378 404.791 221.617L352.3 480.513Z" fill="black"/>
<path d="M430.905 361.916C413.887 445.85 361.649 506.098 314.227 496.484C266.805 486.869 242.157 411.032 259.175 327.098C276.193 243.163 328.431 182.915 375.853 192.53C423.275 202.145 447.923 277.981 430.905 361.916Z" fill="#B605C8"/>
<path fill-rule="evenodd" clip-rule="evenodd" d="M378.995 459.969C399.238 436.623 416.129 401.673 424.455 360.608C432.781 319.543 430.836 280.775 421.285 251.387C411.663 221.781 394.906 203.108 374.545 198.98C354.185 194.852 331.479 205.523 311.085 229.044C290.842 252.391 273.951 287.341 265.625 328.406C257.299 369.47 259.244 408.239 268.795 437.626C278.417 467.233 295.174 485.906 315.534 490.034C335.895 494.162 358.601 483.49 378.995 459.969ZM314.227 496.484C361.649 506.098 413.887 445.85 430.905 361.916C447.923 277.981 423.275 202.145 375.853 192.53C328.431 182.915 276.193 243.163 259.175 327.098C242.157 411.032 266.805 486.869 314.227 496.484Z" fill="black"/>
<path d="M430.905 361.916C417.77 426.704 375.175 472.747 335.769 464.758C296.362 456.768 275.065 397.77 288.2 332.983C301.336 268.195 343.93 222.151 383.337 230.141C422.744 238.131 444.041 297.128 430.905 361.916Z" fill="#840E91"/>
<path fill-rule="evenodd" clip-rule="evenodd" d="M388.358 436.159C404.627 418.572 418.087 392.018 424.455 360.608C430.824 329.198 428.769 299.499 420.634 276.964C412.453 254.299 398.62 239.955 382.029 236.591C365.438 233.227 347.111 241.051 330.748 258.739C314.478 276.327 301.019 302.88 294.65 334.29C288.282 365.7 290.336 395.399 298.471 417.935C306.653 440.599 320.485 454.944 337.076 458.308C353.668 461.672 371.995 453.847 388.358 436.159ZM335.769 464.758C375.175 472.747 417.77 426.704 430.905 361.916C444.041 297.128 422.744 238.131 383.337 230.141C343.93 222.151 301.336 268.195 288.2 332.983C275.065 397.77 296.362 456.768 335.769 464.758Z" fill="black"/>
<path d="M422.843 360.281C413.047 408.594 383.088 443.294 355.926 437.787C328.764 432.28 314.686 388.651 324.481 340.338C334.276 292.026 364.236 257.325 391.398 262.832C418.56 268.34 432.638 311.969 422.843 360.281Z" fill="#4E0B55"/>
<path fill-rule="evenodd" clip-rule="evenodd" d="M390.915 414.916C402.158 401.894 411.677 382.232 416.393 358.974C421.108 335.715 419.999 313.899 414.716 297.526C409.36 280.927 400.304 271.353 390.09 269.282C379.876 267.212 367.807 272.502 356.408 285.704C345.166 298.726 335.647 318.387 330.931 341.646C326.215 364.905 327.325 386.721 332.608 403.094C337.964 419.693 347.02 429.266 357.234 431.337C367.448 433.408 379.517 428.118 390.915 414.916ZM355.926 437.787C383.088 443.294 413.047 408.594 422.843 360.281C432.638 311.969 418.56 268.34 391.398 262.832C364.236 257.325 334.276 292.026 324.481 340.338C314.686 388.651 328.764 432.28 355.926 437.787Z" fill="black"/>
<path d="M420.342 360.194C415.467 384.239 396.716 400.731 378.459 397.029C360.203 393.328 349.355 370.835 354.23 346.79C359.106 322.745 377.857 306.253 396.114 309.955C414.37 313.656 425.218 336.149 420.342 360.194Z" fill="#643569"/>
<path fill-rule="evenodd" clip-rule="evenodd" d="M400.073 384.075C406.478 378.441 411.714 369.629 413.892 358.886C416.071 348.143 414.68 337.987 410.974 330.304C407.272 322.627 401.483 317.758 394.806 316.405C388.129 315.051 380.901 317.28 374.5 322.909C368.095 328.542 362.859 337.354 360.68 348.098C358.502 358.841 359.893 368.997 363.598 376.679C367.301 384.357 373.09 389.225 379.767 390.579C386.444 391.933 393.672 389.704 400.073 384.075ZM378.459 397.029C396.716 400.73 415.467 384.239 420.342 360.194C425.218 336.149 414.37 313.656 396.114 309.955C377.857 306.253 359.106 322.745 354.23 346.79C349.355 370.835 360.203 393.328 378.459 397.029Z" fill="black"/>
<path d="M149.413 531.058L251.814 487.607L286.672 514.4L229.419 598.062L149.413 531.058Z" fill="#F2F005"/>
<path fill-rule="evenodd" clip-rule="evenodd" d="M149.413 531.058L229.419 598.062L286.672 514.4L251.814 487.607L149.413 531.058ZM161.882 532.916L228.084 588.36L277.724 515.823L250.848 495.166L161.882 532.916Z" fill="black"/>
<path d="M74.9741 334.072L220.724 396.544L227.038 441.619L83.7297 440.683L74.9741 334.072Z" fill="#F27505"/>
<path fill-rule="evenodd" clip-rule="evenodd" d="M74.9741 334.072L83.7297 440.683L227.038 441.619L220.724 396.544L74.9741 334.072ZM82.4279 344.427L89.7957 434.141L219.463 434.988L214.721 401.131L82.4279 344.427Z" fill="black"/>
<path d="M117.949 202.355L233.914 299.8L219.173 344.003L92.6784 302.154L117.949 202.355Z" fill="#F2B705"/>
<path fill-rule="evenodd" clip-rule="evenodd" d="M117.949 202.355L92.6784 302.154L219.173 344.003L233.914 299.8L117.949 202.355ZM121.752 214.146L100.562 297.83L215.007 335.692L226.256 301.961L121.752 214.146Z" fill="black"/>
<path d="M214.619 93.5283L267.309 210.394L241.171 257.709L129.311 170.663L214.619 93.5283Z" fill="#F2D405"/>
<path fill-rule="evenodd" clip-rule="evenodd" d="M214.619 93.5283L129.311 170.663L241.171 257.709L267.309 210.394L214.619 93.5283ZM212.332 104.468L139.541 170.285L239.134 247.785L259.955 210.095L212.332 104.468Z" fill="black"/>
<path d="M309.214 43.0383L336.382 166.677L289.405 193.419L233.855 79.3816L309.214 43.0383Z" fill="#F29A05"/>
<path fill-rule="evenodd" clip-rule="evenodd" d="M309.214 43.0383L233.855 79.3816L289.405 193.419L336.382 166.677L309.214 43.0383ZM304.573 52.583L242.665 82.4394L292.248 184.228L328.914 163.356L304.573 52.583Z" fill="black"/>
<g style="mix-blend-mode:soft-light">
<path d="M492.315 384.02C490.811 391.437 436.616 408.96 409.706 416.794C409.871 427.572 384.183 459.185 371.319 473.644L471.955 426.478C489.68 424.615 525.742 421.183 528.192 422.351C531.253 423.811 547.483 387.231 542.482 387.056C538.482 386.917 507.371 384.974 492.315 384.02Z" fill="black"/>
</g>
<g style="mix-blend-mode:soft-light">
<path d="M372.908 391.287C360.733 358.601 387.173 325.07 401.915 312.39C412.868 294.801 401.292 232.662 394.135 203.791L422.592 241.457L430.631 282.538L429.554 354.088L413.999 410.11L398.673 440.159L373.106 468.97L351.359 487.224C345.813 489.737 333.349 494.905 327.862 495.471C321.004 496.179 304.808 489.118 296.425 486.999C289.717 485.303 277.557 463.448 272.315 452.732C341.068 468.014 368.024 418.136 372.908 391.287Z" fill="black"/>
</g>
<g style="mix-blend-mode:color-dodge">
<path d="M266.171 305.013L282.892 266.015C297.404 268.957 304.333 282.393 305.983 288.743C311.534 294.485 325.553 307.316 337.219 312.703C348.885 318.09 358.284 328.865 361.525 333.58C359.88 345.837 356.186 369.85 354.578 367.845C352.568 365.339 337.664 358.12 323.794 356.148C312.698 354.569 298.246 337.258 292.406 328.799C282.392 308.638 270.744 304.541 266.171 305.013Z" fill="#F5E8E8"/>
</g>
<g style="mix-blend-mode:color-dodge">
<path d="M498.555 342.896C495.591 340.952 454.267 312.932 433.975 299.165L422.194 239.278L442.23 258.449L494.291 308.036L545.536 330.597L544.914 352.295C530.695 349.972 501.518 344.84 498.555 342.896Z" fill="#7A7A7A"/>
</g>
</svg>
